<svg width="24" height="24" viewBox="0 0 24 24" fill="none" xmlns="http://www.w3.org/2000/svg">
<path d="M9.0333 21.8883L11.3607 19.8885C11.7103 19.5824 12.2897 19.5824 12.6393 19.8885L14.9667 21.8883C15.5061 22.1638 16.1654 21.8883 16.3652 21.2965L16.8047 19.9395C16.9145 19.613 16.8047 19.1335 16.5649 18.8886L14.2974 16.5623C14.1276 16.3991 13.9978 16.0726 13.9978 15.8379V12.93C13.9978 12.5015 14.3074 12.2974 14.697 12.4607L19.6016 14.6237C20.3707 14.9604 21 14.5421 21 13.6851V12.3689C21 11.6853 20.5006 10.8996 19.8812 10.6343L14.2974 8.1754C14.1376 8.10398 13.9978 7.88972 13.9978 7.70606V4.64514C13.9978 3.68606 13.3085 2.55352 12.4695 2.11478C12.1698 1.96174 11.8202 1.96174 11.5205 2.11478C10.6815 2.55352 9.99223 3.69626 9.99223 4.65535V7.71626C9.99223 7.89992 9.85239 8.11418 9.69256 8.1856L4.11876 10.6445C3.49945 10.8996 3 11.6853 3 12.3689V13.6851C3 14.5421 3.6293 14.9604 4.39845 14.6237L9.303 12.4607C9.68258 12.2872 10.0022 12.5015 10.0022 12.93V15.8379C10.0022 16.0726 9.87236 16.3991 9.71254 16.5623L7.44506 18.8886C7.20533 19.1335 7.09545 19.6028 7.20533 19.9395L7.64484 21.2965C7.82464 21.8883 8.48391 22.174 9.0333 21.8883Z" stroke="#09051A" stroke-width="1.5" stroke-linecap="round" stroke-linejoin="round"/>
</svg>
