<svg width="105" height="105" viewBox="0 0 105 105" fill="none" xmlns="http://www.w3.org/2000/svg">
<path fill-rule="evenodd" clip-rule="evenodd" d="M80.1692 102.735C72.6184 99.4133 56.1326 94.0734 53.4478 94.0734C51.9377 94.0734 50.6373 93.4007 50.6373 92.6018C50.6373 90.8358 56.0067 90.163 60.9147 91.3403C64.1867 92.0972 64.1867 92.1391 60.4952 89.2798C51.9796 82.5943 39.3948 66.1538 39.269 61.4866C39.227 60.099 20.2243 53.4555 13.6803 21.2891C11.7087 11.534 14.2677 -0.449539 18.2108 0.0129852C18.882 0.097084 19.3434 0.6437 19.3853 1.27441L19.6371 7.2868C21.0633 39.4112 37.8008 52.8664 37.8428 52.9085C37.9686 52.53 36.7101 43.0693 47.8687 39.0328C52.7767 37.2668 58.4397 37.5611 62.4668 40.9669C75.387 51.8573 66.9973 67.6254 50.0919 64.3457C47.8267 63.8831 47.7848 63.6308 50.5114 68.256C55.2097 76.203 64.774 85.832 75.0095 92.896C78.8268 95.5029 78.7849 95.5871 75.8904 89.8687C69.0108 76.4555 68.8011 68.3823 75.4709 74.311C76.9811 75.6565 77.4006 76.3712 81.8052 85.7058C83.4831 89.2798 86.3357 94.6621 88.1395 97.6475C91.4954 103.282 91.6631 103.954 89.8594 104.627C87.5941 105.426 85.3289 105.006 80.1692 102.735ZM58.3978 60.0566C64.2706 57.4076 62.8444 48.9139 55.5872 43.0693C51.9377 40.126 47.3653 42.4386 45.7293 48.073C44.7644 51.4368 45.5195 58.0383 46.9877 58.7951C50.3856 60.6873 55.755 61.2759 58.3978 60.0566Z" fill="#B6BCC8"/>
</svg>
