<svg width="57" height="56" viewBox="0 0 57 56" fill="none" xmlns="http://www.w3.org/2000/svg">
<circle opacity="0.2" cx="28" cy="28" r="28" fill="#048EFF"/>
<path d="M25.6698 31.0686V29.5875C25.6698 29.0137 25.2371 28.7335 24.7096 28.9603L17.934 31.8425C16.8656 32.2961 16 31.7357 16 30.6015V28.8402C16 27.9329 16.6897 26.8788 17.5418 26.5319L25.2506 23.2628C25.467 23.156 25.6563 22.8758 25.6563 22.6356V18.5526C25.6563 17.2717 26.6165 15.7372 27.7661 15.1501C28.1718 14.95 28.6587 14.95 29.0644 15.1501C30.2275 15.7372 31.1877 17.2583 31.1877 18.5393V22.6223C31.1877 22.8625 31.3771 23.1427 31.5935 23.2494L33 23.8365L25.6698 31.0686Z" fill="#048EFF"/>
<path opacity="0.4" d="M40 28.0451V29.821C40 30.9646 39.139 31.5296 38.0762 31.0722L31.336 28.1662C30.7978 27.9509 30.3808 28.22 30.3808 28.7985V32.7135C30.3808 33.023 30.5557 33.4669 30.7844 33.6822L33.9056 36.8169C34.2285 37.1398 34.3765 37.7856 34.2285 38.2295L33.6231 40.0592C33.354 40.853 32.4526 41.2162 31.7127 40.853L28.5108 38.1623C28.0264 37.7452 27.2327 37.7452 26.7484 38.1623L23.5464 40.853C22.8065 41.2297 21.9051 40.853 21.663 40.0592L21.0575 38.2295C20.9096 37.7721 21.0575 37.1398 21.3804 36.8169L24.5016 33.6822C24.7169 33.4669 24.8918 33.023 24.8918 32.7135V30.2919L32.1835 23L38.4663 25.7042C39.3139 26.0674 40 27.1303 40 28.0451Z" fill="#048EFF"/>
</svg>
