<svg width="46" height="46" viewBox="0 0 46 46" fill="none" xmlns="http://www.w3.org/2000/svg">
<g clip-path="url(#clip0_1_14423)">
<path fill-rule="evenodd" clip-rule="evenodd" d="M1 23.5C1 11.0736 11.0736 1 23.5 1C35.9265 1 46 11.0736 46 23.5C46 35.9264 35.9265 46 23.5 46C11.0736 46 1 35.9264 1 23.5ZM25.75 12.25C25.75 11.0073 24.7427 10 23.5 10C22.2574 10 21.25 11.0073 21.25 12.25V23.5C21.25 24.0967 21.4871 24.669 21.9091 25.091L26.4091 29.591C27.2877 30.4696 28.7124 30.4696 29.591 29.591C30.4697 28.7123 30.4697 27.2877 29.591 26.409L25.75 22.568V12.25Z" fill="#048EFF"/>
</g>
<defs>
<clipPath id="clip0_1_14423">
<rect width="46" height="46" fill="white"/>
</clipPath>
</defs>
</svg>
