<svg width="182" height="114" viewBox="0 0 182 114" fill="none" xmlns="http://www.w3.org/2000/svg">
<path d="M174.85 24.2681L175.197 25.2059L174.85 24.2681ZM8.43917 85.9043L8.09184 84.9665H8.09184L8.43917 85.9043ZM7.03956 108C7.03956 110.946 9.42737 113.333 12.3729 113.333C15.3184 113.333 17.7062 110.946 17.7062 108C17.7062 105.054 15.3184 102.667 12.3729 102.667C9.42737 102.667 7.03956 105.054 7.03956 108ZM166.264 6C166.264 8.94552 168.652 11.3333 171.597 11.3333C174.543 11.3333 176.931 8.94552 176.931 6C176.931 3.05448 174.543 0.666667 171.597 0.666667C168.652 0.666667 166.264 3.05448 166.264 6ZM12.3729 107C11.8634 107 11.3728 106.969 10.9012 106.91L10.6539 108.895C11.2094 108.964 11.7827 109 12.3729 109V107ZM8.10369 106.164C7.19189 105.773 6.37604 105.259 5.65997 104.649L4.36349 106.172C5.22892 106.909 6.21573 107.531 7.31638 108.002L8.10369 106.164ZM3.75897 102.477C3.23032 101.662 2.81535 100.774 2.52149 99.8436L0.61443 100.446C0.960775 101.542 1.45157 102.595 2.08142 103.565L3.75897 102.477ZM2.01142 96.9697C1.96726 95.9956 2.0509 95.0184 2.26668 94.0712L0.31664 93.627C0.0596644 94.755 -0.0385669 95.9123 0.0134727 97.0603L2.01142 96.9697ZM3.30185 91.3752C3.76348 90.5555 4.35139 89.7906 5.07171 89.1083L3.69632 87.6563C2.82738 88.4794 2.11673 89.4038 1.55919 90.3938L3.30185 91.3752ZM7.43733 87.4371C7.85934 87.2182 8.30879 87.019 8.7865 86.842L8.09184 84.9665C7.53851 85.1715 7.01341 85.404 6.51649 85.6617L7.43733 87.4371ZM8.7865 86.842L10.1733 86.3284L9.47859 84.4529L8.09184 84.9665L8.7865 86.842ZM12.9468 85.3011L15.7203 84.2738L15.0256 82.3984L12.2521 83.4256L12.9468 85.3011ZM18.4938 83.2466L21.2673 82.2193L20.5726 80.3438L17.7991 81.3711L18.4938 83.2466ZM24.0408 81.192L26.8143 80.1648L26.1196 78.2893L23.3461 79.3165L24.0408 81.192ZM29.5878 79.1375L32.3613 78.1102L31.6666 76.2347L28.8931 77.262L29.5878 79.1375ZM35.1348 77.083L37.9083 76.0557L37.2136 74.1802L34.4401 75.2075L35.1348 77.083ZM40.6818 75.0284L43.4553 74.0011L42.7607 72.1257L39.9872 73.1529L40.6818 75.0284ZM46.2288 72.9739L49.0023 71.9466L48.3077 70.0711L45.5342 71.0984L46.2288 72.9739ZM51.7758 70.9193L54.5493 69.8921L53.8547 68.0166L51.0812 69.0438L51.7758 70.9193ZM57.3228 68.8648L60.0964 67.8375L59.4017 65.962L56.6282 66.9893L57.3228 68.8648ZM62.8699 66.8103L65.6434 65.783L64.9487 63.9075L62.1752 64.9348L62.8699 66.8103ZM68.4169 64.7557L71.1904 63.7285L70.4957 61.853L67.7222 62.8802L68.4169 64.7557ZM73.9639 62.7012L76.7374 61.6739L76.0427 59.7984L73.2692 60.8257L73.9639 62.7012ZM79.5109 60.6466L82.2844 59.6194L81.5897 57.7439L78.8162 58.7712L79.5109 60.6466ZM85.0579 58.5921L87.8314 57.5648L87.1367 55.6894L84.3632 56.7166L85.0579 58.5921ZM90.6049 56.5376L93.3784 55.5103L92.6837 53.6348L89.9102 54.6621L90.6049 56.5376ZM96.1519 54.483L98.9254 53.4558L98.2308 51.5803L95.4573 52.6076L96.1519 54.483ZM101.699 52.4285L104.472 51.4012L103.778 49.5257L101.004 50.553L101.699 52.4285ZM107.246 50.374L110.019 49.3467L109.325 47.4712L106.551 48.4985L107.246 50.374ZM112.793 48.3194L115.566 47.2922L114.872 45.4167L112.098 46.4439L112.793 48.3194ZM118.34 46.2649L121.113 45.2376L120.419 43.3621L117.645 44.3894L118.34 46.2649ZM123.887 44.2104L126.66 43.1831L125.966 41.3076L123.192 42.3349L123.887 44.2104ZM129.434 42.1558L132.207 41.1285L131.513 39.2531L128.739 40.2803L129.434 42.1558ZM134.981 40.1013L137.754 39.074L137.06 37.1985L134.286 38.2258L134.981 40.1013ZM140.528 38.0467L143.301 37.0195L142.607 35.144L139.833 36.1712L140.528 38.0467ZM146.075 35.9922L148.849 34.9649L148.154 33.0894L145.38 34.1167L146.075 35.9922ZM151.622 33.9377L154.396 32.9104L153.701 31.0349L150.927 32.0622L151.622 33.9377ZM157.169 31.8831L159.943 30.8558L159.248 28.9804L156.474 30.0076L157.169 31.8831ZM162.716 29.8286L165.49 28.8013L164.795 26.9258L162.021 27.9531L162.716 29.8286ZM168.263 27.774L171.037 26.7468L170.342 24.8713L167.568 25.8985L168.263 27.774ZM173.81 25.7195L175.197 25.2059L174.502 23.3304L173.115 23.844L173.81 25.7195ZM175.197 25.2059C175.78 24.9897 176.327 24.7368 176.837 24.4509L175.858 22.7066C175.442 22.94 174.991 23.1495 174.502 23.3304L175.197 25.2059ZM179.645 22.146C180.454 21.1861 181.047 20.1075 181.435 18.9736L179.543 18.3256C179.231 19.2361 178.758 20.095 178.116 20.8568L179.645 22.146ZM181.999 15.3989C181.984 14.1917 181.77 12.9877 181.369 11.8495L179.483 12.5144C179.812 13.4469 179.987 14.4347 179.999 15.4238L181.999 15.3989ZM179.608 8.68734C178.852 7.75644 177.923 6.9486 176.831 6.32787L175.843 8.06653C176.708 8.55872 177.449 9.20102 178.055 9.94801L179.608 8.68734ZM173.398 5.1386C172.82 5.04737 172.22 5 171.597 5V7C172.118 7 172.614 7.03962 173.085 7.11408L173.398 5.1386Z" fill="white"/>
<path d="M90.9716 44.7631L89.0563 45.339L86.5567 54.4442L81.2896 56.0279C80.4947 56.2668 80.0448 57.1017 80.2822 57.8971C80.5197 58.6924 81.353 59.1414 82.1478 58.9025L87.4149 57.3189L94.4918 63.5449L96.4071 62.969L91.7243 56.0232L96.9914 54.4396L99.0001 55.9241L100.437 55.4922L98.4776 52.4264L98.434 48.7848L96.9975 49.2167L96.1332 51.565L90.8661 53.1486L90.9716 44.7631Z" fill="white"/>
</svg>
