<svg width="19" height="22" viewBox="0 0 19 22" fill="none" xmlns="http://www.w3.org/2000/svg">
<g clip-path="url(#clip0_1_14460)">
<path d="M9.50002 22C9.6427 21.9982 9.78078 21.9496 9.89269 21.8617C10.2727 21.56 19 14.5326 19 9.42857C19 6.92796 17.9992 4.52976 16.2176 2.76156C14.436 0.993364 12.0196 0 9.50002 0C6.98046 0 4.56409 0.993364 2.78249 2.76156C1.00089 4.52976 0 6.92796 0 9.42857C0 14.5326 8.72735 21.56 9.10736 21.8617C9.21926 21.9496 9.35734 21.9982 9.50002 22ZM9.50002 5.65714C10.1264 5.65714 10.7386 5.84147 11.2593 6.18681C11.7801 6.53215 12.186 7.023 12.4257 7.59728C12.6654 8.17156 12.728 8.80349 12.6058 9.41314C12.4837 10.0228 12.182 10.5828 11.7392 11.0223C11.2964 11.4619 10.7321 11.7612 10.1178 11.8825C9.50354 12.0037 8.86682 11.9415 8.28819 11.7036C7.70955 11.4657 7.21498 11.0629 6.86703 10.5461C6.51907 10.0292 6.33334 9.4216 6.33334 8.8C6.33334 7.96646 6.66698 7.16706 7.26085 6.57766C7.85472 5.98826 8.66016 5.65714 9.50002 5.65714Z" fill="#09051A"/>
</g>
<defs>
<clipPath id="clip0_1_14460">
<rect width="19" height="22" fill="white"/>
</clipPath>
</defs>
</svg>
