<svg width="75" height="24" viewBox="0 0 75 24" fill="none" xmlns="http://www.w3.org/2000/svg">
<g clip-path="url(#clip0_55_34448)">
<path d="M24 0H0V24H24V0Z" fill="white"/>
<path d="M15.2688 17.0304L14.6928 16.32V17.0496H12.96V15.9984C12.7161 16.0741 12.4618 16.1114 12.2064 16.1088H11.952V17.0304H9.4272L9 16.4256L8.5824 17.0304H4.4496V12.96H8.6016L9.0192 13.5552L9.4464 12.96H24V0H0V9.4704L0.816 7.6032H2.448L2.928 8.6544V7.6032H4.92L5.2224 8.5056L5.5248 7.6032H14.3328V8.0112C14.692 7.73353 15.1366 7.58931 15.5904 7.6032H18.2688L18.7488 8.6544V7.6032H20.328L20.8512 8.4288V7.6032H22.6512V11.688H20.9568L20.448 10.896V11.6928H18.0048L17.76 11.088H17.208L16.9776 11.6928H15.5376C15.1037 11.7084 14.6773 11.5764 14.328 11.3184V11.6928H11.928L11.352 10.9632V11.6928H2.1792L1.9488 11.088H1.3824L1.152 11.6928H0V24H24V16.8C23.7266 16.9657 23.4125 17.0522 23.0928 17.0496L15.2688 17.0304Z" fill="#006FCF"/>
<path d="M23.9374 14.0373H22.494C22.3716 14.0246 22.2479 14.039 22.1311 14.0796C22.0143 14.1203 21.9071 14.1863 21.8163 14.2732C21.7255 14.3602 21.6532 14.4662 21.6042 14.5844C21.5552 14.7026 21.5305 14.8303 21.5318 14.9591C21.5255 15.0797 21.5443 15.2002 21.587 15.3123C21.6298 15.4245 21.6953 15.5255 21.7791 15.6085C21.8629 15.6914 21.9629 15.7542 22.0723 15.7926C22.1816 15.8309 22.2976 15.8439 22.4122 15.8305H23.0618C23.0985 15.8252 23.1359 15.8283 23.1715 15.8394C23.207 15.8505 23.2399 15.8695 23.2678 15.895C23.2958 15.9206 23.3182 15.9521 23.3336 15.9874C23.3489 16.0228 23.3569 16.0612 23.3569 16.1C23.3569 16.1388 23.3489 16.1772 23.3336 16.2126C23.3182 16.2479 23.2958 16.2795 23.2678 16.305C23.2399 16.3305 23.207 16.3495 23.1715 16.3606C23.1359 16.3717 23.0985 16.3748 23.0618 16.3695H21.6184V16.9991H23.0618C23.2499 17.0076 23.4358 16.9538 23.5931 16.8453C23.7503 16.7368 23.8708 16.5791 23.9374 16.3947C23.9777 16.2836 23.9989 16.1659 24 16.0471C24.0006 15.9232 23.9794 15.8003 23.9374 15.6844C23.8696 15.5196 23.7531 15.3817 23.6051 15.2911C23.4571 15.2005 23.2852 15.1618 23.1147 15.1807H22.4604C22.4251 15.1836 22.3896 15.1786 22.3564 15.1661C22.3231 15.1536 22.2927 15.1339 22.2672 15.1082C22.2418 15.0824 22.2218 15.0514 22.2087 15.017C22.1955 14.9826 22.1895 14.9457 22.1909 14.9087C22.1901 14.8722 22.1967 14.8358 22.2102 14.802C22.2236 14.7683 22.2437 14.7378 22.2691 14.7127C22.2945 14.6875 22.3246 14.6682 22.3575 14.656C22.3905 14.6438 22.4255 14.639 22.4604 14.6418H23.6776L23.9374 14.0373ZM19.5784 14.9188C19.5776 14.8822 19.5841 14.8459 19.5976 14.8121C19.6111 14.7784 19.6311 14.7479 19.6565 14.7228C19.6819 14.6976 19.712 14.6783 19.745 14.6661C19.7779 14.6539 19.813 14.649 19.8478 14.6518H21.0506L21.3201 14.0222H19.8767C19.7542 14.0095 19.6305 14.0239 19.5138 14.0645C19.397 14.1052 19.2897 14.1711 19.1989 14.2581C19.1081 14.3451 19.0358 14.4511 18.9868 14.5693C18.9378 14.6875 18.9131 14.8152 18.9144 14.944C18.9081 15.0645 18.927 15.1851 18.9697 15.2972C19.0124 15.4094 19.0779 15.5104 19.1617 15.5934C19.2455 15.6763 19.3456 15.7391 19.4549 15.7775C19.5643 15.8158 19.6803 15.8288 19.7949 15.8154H20.4444C20.4812 15.8101 20.5186 15.8132 20.5541 15.8243C20.5897 15.8354 20.6225 15.8544 20.6505 15.8799C20.6784 15.9055 20.7008 15.937 20.7162 15.9723C20.7315 16.0077 20.7395 16.0461 20.7395 16.0849C20.7395 16.1237 20.7315 16.1621 20.7162 16.1975C20.7008 16.2328 20.6784 16.2643 20.6505 16.2899C20.6225 16.3154 20.5897 16.3344 20.5541 16.3455C20.5186 16.3566 20.4812 16.3597 20.4444 16.3544H19.001V16.984H20.4444C20.5688 16.9962 20.6942 16.9806 20.8123 16.9382C20.9305 16.8957 21.0387 16.8275 21.1297 16.7379C21.2207 16.6483 21.2925 16.5395 21.3402 16.4187C21.388 16.2978 21.4106 16.1677 21.4067 16.037C21.4135 15.9172 21.3948 15.7973 21.3519 15.686C21.3091 15.5746 21.2432 15.4746 21.159 15.3932C21.0747 15.3117 20.9743 15.2509 20.8648 15.215C20.7554 15.1791 20.6398 15.1692 20.5262 15.1858H19.8526C19.8173 15.1887 19.7819 15.1837 19.7486 15.1712C19.7153 15.1587 19.6849 15.1389 19.6595 15.1132C19.634 15.0875 19.6141 15.0564 19.6009 15.0221C19.5878 14.9877 19.5817 14.9508 19.5832 14.9138L19.5784 14.9188ZM16.3403 16.984H18.6113V16.3544H17.0235V15.8003H18.5728V15.1807H17.0235V14.6468H18.6113V14.0172H16.3403V16.984ZM16.1719 16.984L15.2097 15.896C15.4404 15.8571 15.6478 15.7262 15.7884 15.5308C15.9289 15.3354 15.9918 15.0906 15.9638 14.8477C15.9359 14.6048 15.8192 14.3826 15.6382 14.2278C15.4573 14.073 15.2261 13.9975 14.9932 14.0172H13.4535V16.984H14.1367V15.9212H14.4543L15.2963 16.984H16.1719ZM14.9547 15.3067H14.1656V14.6518H14.9595C15.0043 14.6461 15.0498 14.6505 15.0928 14.6646C15.1359 14.6787 15.1756 14.7023 15.2093 14.7337C15.243 14.7652 15.2699 14.8038 15.2882 14.847C15.3066 14.8902 15.3158 14.937 15.3155 14.9843C15.316 15.0314 15.3067 15.078 15.2883 15.121C15.27 15.164 15.243 15.2024 15.2092 15.2334C15.1754 15.2645 15.1356 15.2876 15.0925 15.3011C15.0494 15.3146 15.004 15.3182 14.9595 15.3117L14.9547 15.3067ZM13.1167 15.0095C13.1252 14.8749 13.1062 14.7399 13.0608 14.6137C13.0155 14.4874 12.9449 14.3727 12.8538 14.2774C12.7627 14.182 12.6531 14.1081 12.5325 14.0606C12.4119 14.0131 12.283 13.9932 12.1545 14.0021H10.5763V16.9689H11.2596V16.0018H12.116C12.2471 16.0133 12.3791 15.9955 12.5032 15.9496C12.6273 15.9037 12.7406 15.8307 12.8357 15.7354C12.9308 15.6402 13.0054 15.5248 13.0547 15.3971C13.104 15.2693 13.1268 15.132 13.1215 14.9944L13.1167 15.0095ZM12.4287 15.0095C12.4317 15.0588 12.4244 15.1082 12.4074 15.1543C12.3905 15.2004 12.3642 15.2421 12.3303 15.2765C12.2965 15.311 12.256 15.3374 12.2115 15.3539C12.167 15.3704 12.1197 15.3766 12.0727 15.3721H11.2596V14.6468H12.0727C12.1197 14.6424 12.167 14.6486 12.2115 14.6651C12.256 14.6816 12.2965 14.708 12.3303 14.7424C12.3642 14.7769 12.3905 14.8186 12.4074 14.8647C12.4244 14.9108 12.4317 14.9602 12.4287 15.0095ZM10.4657 16.984L9.33021 15.4729L10.4657 14.0172H9.61889L8.92605 14.9591L8.23322 14.0172H7.38161L8.51709 15.4981L7.38643 16.984H8.21398L8.91162 16.032L9.60445 16.984H10.4657ZM5.00962 16.984H7.28058V16.3544H5.69283V15.8003H7.24208V15.1807H5.68321V14.6468H7.27095V14.0172H5V16.984H5.00962Z" fill="#006FCF"/>
<path d="M22 10.9984V8.02852H21.3364V9.62028V9.98134L21.144 9.6457L20.1438 8.02852H19.3023V10.9984H19.9707V9.35583V8.99985L20.1583 9.3304L21.2066 10.9984H22ZM18.3983 10.9984H19.1725L17.9607 8.00309H17.0662L15.8448 10.9984H16.5757L16.8162 10.3678H18.153L18.3934 10.9984H18.3983ZM17.9174 9.79318H17.0422L17.2874 9.11173L17.4654 8.63878L17.6385 9.11173L17.9078 9.81352L17.9174 9.79318ZM15.5419 8.65403H16.3257V8.02852H15.513C15.3311 8.01646 15.1489 8.04564 14.9786 8.11409C14.8082 8.18255 14.6537 8.28871 14.5253 8.42546C14.3969 8.56221 14.2976 8.7264 14.2341 8.90703C14.1706 9.08765 14.1443 9.28055 14.1569 9.4728V9.52365C14.1365 9.71474 14.1556 9.90824 14.2129 10.0908C14.2702 10.2733 14.3643 10.4404 14.4887 10.5807C14.6131 10.721 14.7648 10.831 14.9334 10.9031C15.1019 10.9752 15.2833 11.0078 15.4649 10.9984H15.5034L15.7823 10.3577H15.5707C15.4677 10.3647 15.3646 10.3474 15.2687 10.3071C15.1728 10.2669 15.0866 10.2046 15.0162 10.1248C14.9458 10.045 14.8931 9.94972 14.8617 9.84576C14.8304 9.74181 14.8212 9.63179 14.835 9.52365V9.48297C14.8238 9.37667 14.8345 9.26909 14.8663 9.16756C14.8981 9.06604 14.9502 8.97298 15.0192 8.89474C15.0881 8.81651 15.1723 8.75496 15.2658 8.71429C15.3593 8.67362 15.46 8.6548 15.5611 8.65912L15.5419 8.65403ZM13.075 10.9984H13.7578V8.02852H13.075V10.9984ZM12.9067 10.9984L11.9449 9.89998C12.1755 9.8607 12.3828 9.72856 12.5233 9.53125C12.6638 9.33395 12.7267 9.08679 12.6987 8.84156C12.6707 8.59633 12.5541 8.37207 12.3732 8.21577C12.1924 8.05946 11.9613 7.98325 11.7285 8.00309H10.1897V10.9984H10.8726V9.94575H11.1899L12.0603 10.9984H12.9067ZM11.6901 9.30498H10.8966V8.64386H11.6901C11.7348 8.63808 11.7803 8.64246 11.8234 8.65672C11.8664 8.67097 11.9061 8.69478 11.9398 8.72654C11.9735 8.7583 12.0003 8.7973 12.0186 8.84092C12.0369 8.88454 12.0462 8.93179 12.0459 8.9795C12.0463 9.02705 12.0371 9.07413 12.0187 9.11754C12.0004 9.16095 11.9734 9.19967 11.9396 9.23104C11.9058 9.26242 11.8661 9.28572 11.823 9.29936C11.7799 9.313 11.7346 9.31665 11.6901 9.31006V9.30498ZM7.48721 10.9984H9.75694V10.3831H8.15082V9.82878H9.69923V9.20327H8.15082V8.6642H9.73771V8.02852H7.48721V10.9984ZM6.29464 10.9984H6.95825V8.02852H5.85224L5.30404 9.76267L5.21268 10.0932L5.12131 9.76267L4.55388 8.02852H3.45268V10.9984H4.11628V9.05579V8.59809L4.25574 9.05579L4.8953 10.9984H5.51563L6.16481 9.03544L6.30426 8.57775V9.03544V10.9984H6.29464ZM2.54863 10.9984H3.34208L2.11104 8.02852H1.2118L0 10.9984H0.730929L0.971366 10.3678H2.3082L2.54863 10.9984ZM2.06776 9.79318H1.18776L1.45705 9.09138L1.63497 8.61844L1.80809 9.09138L2.07738 9.79318H2.06776Z" fill="#006FCF"/>
<path d="M33 9.98654V5H34.1326L35.5138 8.95422L36.8398 5H38V9.98205H37.1713V6.2702H37.1436C37.0668 6.42637 36.9991 6.58672 36.9411 6.75045L36.7569 7.26212L35.7808 9.98654H35.0534L34.105 7.29354L34.0129 7.05566L33.9392 6.82226C33.9147 6.74446 33.8917 6.65919 33.8702 6.56643C33.8487 6.47367 33.8241 6.36744 33.7965 6.24776V10L33 9.98654Z" fill="#162B75"/>
<path d="M39.0007 8.98177C38.9981 8.76181 39.0295 8.54255 39.094 8.32991C39.1479 8.15104 39.2312 7.97991 39.3412 7.82184C39.4393 7.6803 39.5616 7.55262 39.7038 7.44319C39.8374 7.34265 39.985 7.25729 40.1432 7.18916C40.2932 7.12434 40.4519 7.07604 40.6156 7.04537C40.9286 6.98488 41.2529 6.98488 41.5659 7.04537C41.7228 7.07534 41.8743 7.12371 42.0163 7.18916C42.1623 7.25759 42.2957 7.34485 42.4118 7.44798C42.5394 7.56192 42.6451 7.69301 42.7249 7.83622C42.8178 8.00551 42.886 8.18423 42.9282 8.36826C42.9796 8.59713 43.0035 8.83005 42.9996 9.06325V9.26936H40.0169C40.0223 9.42406 40.0595 9.57666 40.1267 9.71991C40.1826 9.83801 40.2669 9.94426 40.3739 10.0315C40.4783 10.1143 40.602 10.1764 40.7365 10.2136C40.8822 10.2533 41.0342 10.2727 41.1869 10.2711C41.3158 10.2724 41.4446 10.2628 41.5714 10.2424C41.681 10.2243 41.7879 10.1953 41.89 10.1561C41.9872 10.1188 42.0793 10.0722 42.1646 10.0171C42.2533 9.95952 42.3377 9.89708 42.4173 9.83015L42.9666 10.3095C42.7439 10.5247 42.4728 10.6976 42.1701 10.8175C41.8413 10.9431 41.4853 11.0052 41.1265 10.9997C40.8576 11.001 40.5904 10.9638 40.3355 10.8894C40.0831 10.8159 39.8525 10.6948 39.6598 10.5347C39.455 10.3603 39.2957 10.1494 39.1929 9.91642C39.058 9.61918 38.9927 9.30139 39.0007 8.98177ZM40.0333 8.60791H42.0768C42.0695 8.36856 41.9687 8.13855 41.7911 7.95605C41.697 7.87843 41.5854 7.81875 41.4634 7.78079C41.3414 7.74283 41.2117 7.72743 41.0825 7.73557C40.9519 7.72512 40.8202 7.73321 40.6925 7.75954C40.5771 7.79119 40.4705 7.84342 40.3794 7.91291C40.279 7.9892 40.1969 8.08205 40.1377 8.18612C40.0752 8.32038 40.0399 8.4631 40.0333 8.60791Z" fill="#162B75"/>
<path d="M43 10.9902V7.07838H43.9391V7.61137C44.0187 7.52657 44.1053 7.44808 44.1979 7.37666C44.2973 7.30108 44.4045 7.23553 44.5177 7.18106C44.6374 7.12358 44.7634 7.07929 44.8934 7.04904C45.0346 7.01613 45.1795 6.99971 45.3248 7.00014C45.4719 6.99829 45.6186 7.01473 45.7614 7.04904C45.8715 7.07604 45.9762 7.12067 46.071 7.18106C46.1538 7.23524 46.226 7.30312 46.2842 7.38154C46.3436 7.46208 46.393 7.54906 46.4314 7.6407C46.5146 7.55434 46.6045 7.47424 46.7004 7.4011C46.8014 7.3225 46.9102 7.25371 47.0253 7.19573C47.1464 7.13514 47.2741 7.08758 47.406 7.05393C47.5485 7.01797 47.6952 6.99989 47.8425 7.00014C48.0159 6.99952 48.1879 7.02935 48.3501 7.08816C48.4896 7.13969 48.6147 7.22171 48.7156 7.32776C48.8141 7.4351 48.8869 7.56196 48.9288 7.69938C48.978 7.85798 49.002 8.02285 48.9999 8.18836V10.9804H48.0862V8.41818C48.0875 8.32469 48.079 8.23131 48.0608 8.13947C48.0472 8.06813 48.0158 8.00102 47.9694 7.94387C47.9235 7.89203 47.8639 7.85316 47.7969 7.83141C47.7064 7.805 47.6121 7.79343 47.5177 7.79718C47.3384 7.80045 47.1633 7.84937 47.0101 7.93898C46.8286 8.04458 46.6585 8.16744 46.5025 8.30572V11H45.5431V8.41818C45.5444 8.32469 45.5359 8.23131 45.5177 8.13947C45.5041 8.06813 45.4727 8.00102 45.4263 7.94387C45.3804 7.89203 45.3208 7.85316 45.2538 7.83141C45.1636 7.80335 45.0693 7.79012 44.9746 7.79229C44.882 7.79123 44.7897 7.80275 44.7005 7.82652C44.6121 7.85124 44.5269 7.88569 44.4467 7.9292C44.3583 7.97723 44.2735 8.03115 44.1929 8.09057C44.1066 8.15413 44.0254 8.22259 43.9391 8.29594V10.9902H43Z" fill="#162B75"/>
<path d="M50 9.94199V5H50.9893V6.86381C51.062 6.79174 51.1417 6.7248 51.2274 6.66364C51.3199 6.5978 51.4211 6.54108 51.5289 6.49461C51.6451 6.44478 51.7676 6.40599 51.894 6.37895C52.0357 6.34862 52.1815 6.33367 52.3278 6.33447C52.5571 6.3334 52.7842 6.3728 52.9944 6.45012C53.2005 6.5274 53.3819 6.64481 53.5234 6.79264C53.6827 6.96319 53.8013 7.15804 53.8726 7.36646C53.9622 7.62806 54.0049 7.8994 53.9995 8.17159C54.0046 8.44407 53.96 8.71559 53.8673 8.97672C53.794 9.18713 53.6697 9.3825 53.5022 9.55054C53.3467 9.70005 53.1508 9.81599 52.9309 9.88861C52.6966 9.96525 52.4469 10.003 52.1955 9.99981C51.9684 10.0008 51.7434 9.96294 51.5342 9.88861C51.3304 9.81208 51.1496 9.69807 51.0052 9.55499V9.95088L50 9.94199ZM50.9893 8.9011C51.1124 9.03941 51.2717 9.15204 51.4549 9.23027C51.6182 9.30204 51.7996 9.34015 51.9839 9.34147C52.1352 9.35318 52.2875 9.33285 52.4271 9.28235C52.5666 9.23185 52.6889 9.15277 52.7828 9.05234C52.9703 8.78373 53.0552 8.4732 53.0261 8.16269C53.0516 7.8607 52.9567 7.56017 52.7563 7.30863C52.669 7.21445 52.5563 7.13909 52.4275 7.08881C52.2987 7.03853 52.1575 7.01477 52.0156 7.0195C51.9153 7.01873 51.8154 7.03073 51.7194 7.05508C51.6221 7.0793 51.5281 7.1121 51.439 7.15294C51.3508 7.19345 51.2675 7.24113 51.1903 7.29529C51.1156 7.35132 51.0482 7.41396 50.9893 7.48211V8.9011Z" fill="#162B75"/>
<path d="M54.0007 8.98177C53.9981 8.76181 54.0295 8.54255 54.094 8.32991C54.1479 8.15104 54.2312 7.97991 54.3412 7.82184C54.4393 7.6803 54.5616 7.55262 54.7038 7.44319C54.8374 7.34265 54.985 7.25729 55.1432 7.18916C55.2932 7.12434 55.4519 7.07604 55.6156 7.04537C55.9286 6.98488 56.2529 6.98488 56.5659 7.04537C56.7228 7.07534 56.8743 7.12371 57.0163 7.18916C57.1623 7.25759 57.2957 7.34485 57.4118 7.44798C57.5394 7.56192 57.6451 7.69301 57.7249 7.83622C57.8178 8.00551 57.886 8.18423 57.9282 8.36826C57.9796 8.59713 58.0035 8.83005 57.9996 9.06325V9.26936H55.0169C55.0223 9.42406 55.0595 9.57666 55.1267 9.71991C55.1826 9.83801 55.2669 9.94426 55.3739 10.0315C55.4783 10.1143 55.602 10.1764 55.7365 10.2136C55.8822 10.2533 56.0342 10.2727 56.1869 10.2711C56.3158 10.2724 56.4446 10.2628 56.5714 10.2424C56.681 10.2243 56.7879 10.1953 56.89 10.1561C56.9872 10.1188 57.0793 10.0722 57.1646 10.0171C57.2533 9.95952 57.3377 9.89708 57.4173 9.83015L57.9666 10.3095C57.7439 10.5247 57.4728 10.6976 57.1701 10.8175C56.8413 10.9431 56.4853 11.0052 56.1265 10.9997C55.8576 11.001 55.5904 10.9638 55.3355 10.8894C55.0831 10.8159 54.8525 10.6948 54.6598 10.5347C54.455 10.3603 54.2957 10.1494 54.1929 9.91642C54.058 9.61918 53.9927 9.30139 54.0007 8.98177ZM55.0333 8.60791H57.0768C57.0692 8.36631 56.9664 8.13437 56.7856 7.95126C56.6915 7.87364 56.5799 7.81396 56.4579 7.776C56.3359 7.73804 56.2062 7.72264 56.077 7.73078C55.9559 7.73113 55.8356 7.74728 55.72 7.77871C55.6046 7.81036 55.4979 7.86259 55.4069 7.93209C55.3065 8.00838 55.2243 8.10122 55.1652 8.20529C55.0937 8.33179 55.0473 8.46791 55.0278 8.60791H55.0333Z" fill="#162B75"/>
<path d="M58 11V7.07366H58.766V7.71169C58.8177 7.61211 58.8788 7.51989 58.9482 7.43685C59.0233 7.34827 59.1083 7.27231 59.2008 7.21109C59.3052 7.1436 59.4166 7.09246 59.5321 7.05894C59.6675 7.01871 59.8066 6.99892 59.9462 7.00005H60L59.9752 7.82948H59.7681C59.655 7.82819 59.5422 7.8447 59.4327 7.87856C59.3348 7.90952 59.2413 7.95749 59.1553 8.02089C59.0727 8.08222 58.9975 8.15652 58.9317 8.24175C58.8629 8.32896 58.8018 8.42435 58.7495 8.52641V10.9804L58 11Z" fill="#162B75"/>
<path d="M61 10.4065L61.4424 9.8661C61.5124 9.92945 61.5863 9.98748 61.6636 10.0398C61.7466 10.0963 61.8339 10.1448 61.9246 10.1845C62.0206 10.2275 62.1198 10.2614 62.2211 10.2859C62.3286 10.3117 62.4384 10.3246 62.5484 10.3245C62.7258 10.3337 62.9027 10.2991 63.0661 10.2231C63.1251 10.1931 63.1744 10.1444 63.2076 10.0832C63.2408 10.0221 63.2562 9.95145 63.2519 9.88058C63.2541 9.8086 63.2321 9.73821 63.1899 9.68276C63.1433 9.624 63.0861 9.57636 63.0218 9.54284C62.9425 9.5015 62.8595 9.46916 62.7741 9.44634L62.4821 9.36914L62.1812 9.28712C62.0748 9.25815 61.9699 9.22271 61.8671 9.18097C61.7658 9.14091 61.6681 9.09085 61.5751 9.0314C61.4904 8.97566 61.4142 8.90564 61.3495 8.82393C61.2827 8.73988 61.2303 8.64347 61.1947 8.53926C61.1547 8.41532 61.1352 8.28463 61.1371 8.15327C61.1333 7.98622 61.1667 7.82065 61.2345 7.67078C61.298 7.53205 61.3886 7.41018 61.4999 7.31374C61.6228 7.2096 61.7623 7.13109 61.9114 7.08214C62.085 7.02558 62.2655 6.99793 62.4467 7.00012C62.5949 7.00022 62.7428 7.01313 62.8891 7.03872C63.0187 7.06073 63.1462 7.09628 63.2696 7.14487C63.3823 7.19091 63.4904 7.2491 63.5925 7.31856C63.6936 7.38592 63.7898 7.46174 63.8801 7.54533L63.4908 8.12432C63.421 8.065 63.347 8.01176 63.2696 7.9651C63.1869 7.91516 63.1012 7.87163 63.013 7.83483C62.9252 7.79719 62.835 7.76656 62.7431 7.74315C62.659 7.72146 62.5729 7.71013 62.4865 7.70938C62.3914 7.70723 62.2964 7.71694 62.2034 7.73833C62.1373 7.75299 62.0743 7.7808 62.0175 7.82035C61.9755 7.85199 61.9419 7.89529 61.9202 7.9458C61.9001 7.99434 61.8896 8.04694 61.8892 8.1002C61.8874 8.17296 61.9111 8.24376 61.9556 8.29802C62.0065 8.35787 62.0683 8.40552 62.137 8.43794C62.2136 8.47707 62.2937 8.50778 62.3759 8.52961L62.6635 8.60681L62.951 8.68401C63.0528 8.71296 63.159 8.74673 63.2651 8.78533C63.3668 8.82258 63.4646 8.87109 63.5571 8.93008C63.6433 8.98573 63.7209 9.05573 63.7872 9.13755C63.8548 9.22278 63.9073 9.32094 63.942 9.42704C63.9821 9.55263 64.0015 9.68491 63.9996 9.81786C64.0047 10.0012 63.965 10.1827 63.8845 10.3438C63.8061 10.4915 63.697 10.6171 63.566 10.7105C63.4224 10.8119 63.2637 10.8854 63.097 10.9276C62.9102 10.9768 62.7185 11.0011 62.5263 11C62.3677 11.0009 62.2092 10.9864 62.0529 10.9565C61.9023 10.9292 61.7543 10.8872 61.6105 10.8311C61.4827 10.7798 61.3597 10.7152 61.2433 10.6381C61.1547 10.5709 61.0731 10.4932 61 10.4065Z" fill="#162B75"/>
<path d="M65 9.99102V5H65.7861V6.89578C65.8477 6.82718 65.9145 6.76407 65.9858 6.7071C66.0704 6.63753 66.1616 6.57732 66.2578 6.5274C66.3692 6.4698 66.486 6.42464 66.6062 6.39263C66.7451 6.35581 66.8879 6.33769 67.0311 6.33872C67.167 6.3361 67.3022 6.35891 67.4306 6.40611C67.546 6.44968 67.6506 6.52034 67.7365 6.61276C67.8245 6.70834 67.8913 6.82343 67.932 6.94969C67.9781 7.0944 68.0011 7.24622 68 7.39892V9.96406H67.2139V7.62803C67.2285 7.46715 67.1844 7.30644 67.0906 7.1788C67.0373 7.13054 66.9748 7.09478 66.9075 7.07387C66.8401 7.05296 66.7693 7.04738 66.6997 7.0575C66.5318 7.05718 66.3665 7.10201 66.2195 7.18778C66.0657 7.28187 65.9231 7.39498 65.7946 7.52471V10L65 9.99102Z" fill="#162B75"/>
<path d="M69 6.71886V6H70V6.71886H69ZM69 11V7.337H69.984V11H69Z" fill="#162B75"/>
<path d="M71 12V7.08493H71.9813V7.53175C72.0543 7.45936 72.1341 7.39211 72.22 7.33068C72.3128 7.26454 72.4142 7.20757 72.5224 7.16089C72.6389 7.11083 72.7616 7.07187 72.8884 7.04471C73.0305 7.01425 73.1767 6.99923 73.3233 7.00003C73.5533 6.99896 73.781 7.03854 73.9917 7.1162C74.1984 7.19383 74.3802 7.31176 74.5221 7.46026C74.6819 7.63158 74.8008 7.82731 74.8722 8.03666C74.9621 8.29944 75.005 8.57201 74.9995 8.84542C75.0046 9.11912 74.9599 9.39187 74.8669 9.65417C74.7935 9.86553 74.6689 10.0618 74.5009 10.2306C74.345 10.3808 74.1485 10.4972 73.928 10.5702C73.6931 10.6471 73.4428 10.6851 73.1907 10.6819C72.963 10.6828 72.7374 10.6448 72.5277 10.5702C72.3233 10.4933 72.1421 10.3788 71.9972 10.235V11.9732L71 12ZM71.9813 9.61396C72.1047 9.75289 72.2645 9.86603 72.4481 9.94461C72.6119 10.0167 72.7937 10.055 72.9786 10.0563C73.1302 10.0681 73.283 10.0477 73.4229 9.99692C73.5628 9.94619 73.6854 9.86676 73.7795 9.76588C73.9675 9.49606 74.0527 9.18413 74.0235 8.87223C74.0491 8.56887 73.9539 8.26699 73.753 8.01432C73.6655 7.91971 73.5525 7.84402 73.4234 7.79352C73.2942 7.74301 73.1527 7.71914 73.0104 7.72389C72.9098 7.72311 72.8096 7.73517 72.7133 7.75963C72.6158 7.78396 72.5215 7.81691 72.4322 7.85793C72.3438 7.89863 72.2603 7.94652 72.1829 8.00092C72.109 8.05159 72.0415 8.10848 71.9813 8.17071V9.61396Z" fill="#162B75"/>
<path d="M33 18V13.0002H34.9223C35.2089 12.9974 35.4946 13.0277 35.772 13.0902C35.9986 13.1384 36.2118 13.2257 36.399 13.3467C36.5668 13.4576 36.7003 13.603 36.7876 13.7697C36.8803 13.9525 36.9262 14.1506 36.9223 14.3503C36.9264 14.5324 36.8931 14.7138 36.8238 14.8858C36.7625 15.0329 36.6673 15.1677 36.544 15.2818C36.4197 15.3947 36.2721 15.4863 36.1088 15.5518C35.9291 15.6241 35.7392 15.6755 35.544 15.7049L37 18H36.3782L34.9741 15.7499H33.5337V18H33ZM33.5181 15.3313H34.8653C35.0773 15.3326 35.289 15.3161 35.4974 15.2818C35.6638 15.2557 35.8225 15.2006 35.9637 15.1198C36.09 15.0458 36.1904 14.9431 36.2539 14.8228C36.3234 14.6806 36.3569 14.5272 36.3523 14.3728C36.359 14.2182 36.3253 14.0644 36.2539 13.9227C36.1912 13.8058 36.0926 13.7062 35.9689 13.6347C35.8252 13.5557 35.665 13.5022 35.4974 13.4772C35.2856 13.4428 35.0704 13.4263 34.8549 13.4277H33.5337L33.5181 15.3313Z" fill="#162B75"/>
<path d="M37.0005 16.0025C36.9946 15.6993 37.0415 15.3976 37.1387 15.1136C37.2186 14.8814 37.3398 14.6689 37.4952 14.4885C37.6349 14.3297 37.8034 14.2049 37.9899 14.1222C38.1654 14.0433 38.353 14.0018 38.5426 14.0001C38.7388 13.9978 38.9332 14.0411 39.1131 14.1271C39.2863 14.215 39.4387 14.3453 39.5588 14.508C39.6964 14.6943 39.7994 14.9083 39.8618 15.138C39.949 15.4198 39.9956 15.7147 40 16.0122V16.1099H37.4596C37.4592 16.3273 37.4908 16.5433 37.5532 16.7497C37.6013 16.9109 37.6752 17.0614 37.7715 17.1941C37.868 17.3175 37.9883 17.4159 38.1236 17.4823C38.2638 17.5505 38.416 17.5839 38.5693 17.58C38.6881 17.5803 38.8065 17.5639 38.9214 17.5311C39.0234 17.5008 39.121 17.4548 39.2111 17.3944C39.3001 17.3335 39.3811 17.2595 39.4518 17.1746C39.5292 17.0802 39.5992 16.9789 39.6613 16.8718L39.9465 17.1258C39.8715 17.2569 39.785 17.3796 39.688 17.4921C39.4996 17.7108 39.2586 17.8666 38.9927 17.9414C38.847 17.9811 38.6973 18.0008 38.547 18C38.3466 18.001 38.1481 17.9578 37.9632 17.873C37.7759 17.7854 37.6085 17.6537 37.4729 17.4872C37.3233 17.3036 37.2082 17.0895 37.1342 16.8571C37.0456 16.5827 37.0004 16.2936 37.0005 16.0025ZM37.4462 15.6997H39.5543C39.5414 15.5337 39.5115 15.3699 39.4652 15.2113C39.4246 15.0644 39.3597 14.9269 39.2735 14.8059C39.1918 14.693 39.0883 14.6013 38.9705 14.5373C38.8411 14.4699 38.6992 14.4365 38.556 14.4396C38.4293 14.4398 38.3037 14.4664 38.186 14.5178C38.0653 14.5705 37.956 14.6504 37.8651 14.7522C37.7622 14.8685 37.6792 15.0042 37.62 15.1527C37.5436 15.3269 37.4924 15.5131 37.4685 15.7046L37.4462 15.6997Z" fill="#162B75"/>
<path d="M41 14H41.5212L42.0473 15.9723L42.139 16.3253L42.2259 16.6482L42.3127 16.971L42.4093 17.3291L42.5106 16.9508L42.5927 16.633L42.6747 16.3203L42.7664 15.9723L43.2828 14H43.7654L44.2819 16.0177L44.3687 16.3607L44.4459 16.6633L44.528 16.976L44.6197 17.3291L44.7114 16.966L44.7934 16.6583L44.8755 16.3607L44.9672 16.0328L45.5174 14.0151H46L44.832 18H44.3494L43.5241 14.6961H43.4903L42.5975 17.9899H42.1583L41 14Z" fill="#162B75"/>
<path d="M46.0011 17.0317C45.9996 16.8452 46.042 16.6613 46.1243 16.497C46.2245 16.3125 46.3656 16.1575 46.5351 16.0458C46.7698 15.8889 47.0232 15.7668 47.2883 15.6828C47.6662 15.5602 48.0523 15.4683 48.4431 15.4081V15.2266C48.4515 15.1177 48.4392 15.0081 48.407 14.9044C48.3748 14.8007 48.3235 14.7051 48.256 14.6233C48.182 14.5536 48.0959 14.5004 48.0027 14.4668C47.9094 14.4331 47.8109 14.4196 47.7128 14.4271C47.5791 14.4266 47.4458 14.4431 47.3157 14.4762C47.1965 14.5065 47.0803 14.5492 46.9688 14.6037C46.8603 14.6576 46.7565 14.7217 46.6584 14.795C46.5583 14.8709 46.4623 14.9528 46.3708 15.0402L46.1152 14.7214C46.221 14.6147 46.3339 14.5163 46.453 14.4271C46.5723 14.3392 46.6992 14.2636 46.8318 14.2015C46.9713 14.1366 47.1166 14.0873 47.2655 14.0543C47.4291 14.0179 47.5959 13.9998 47.763 14.0004C47.9396 13.9964 48.1155 14.0246 48.2834 14.0837C48.4199 14.1337 48.5435 14.2178 48.644 14.329C48.7409 14.439 48.8127 14.5716 48.8539 14.7165C48.9004 14.8819 48.9235 15.0539 48.9224 15.2266V16.9875C48.9132 17.182 48.9132 17.3768 48.9224 17.5712C48.9317 17.7004 48.9579 17.8275 49 17.9489H48.5116C48.4912 17.8601 48.4759 17.77 48.4659 17.6791C48.4494 17.5788 48.4418 17.477 48.4431 17.375C48.2477 17.5705 48.0222 17.7282 47.7767 17.841C47.5363 17.947 47.2787 18.0003 47.019 17.998C46.7465 18.0152 46.478 17.9224 46.2658 17.738C46.1767 17.6479 46.1069 17.5381 46.0612 17.4161C46.0154 17.2942 45.9949 17.163 46.0011 17.0317ZM46.4575 16.9679C46.4517 17.0539 46.4643 17.1402 46.4944 17.2201C46.5245 17.3 46.5712 17.3715 46.631 17.429C46.7622 17.5353 46.9231 17.5907 47.0874 17.586C47.3329 17.5879 47.5758 17.5327 47.7995 17.4241C48.0238 17.313 48.229 17.1621 48.4066 16.9777V15.7662C48.0825 15.8213 47.7622 15.9 47.448 16.0016C47.2358 16.0679 47.032 16.1618 46.8409 16.2812C46.7115 16.3596 46.6018 16.4707 46.5214 16.6049C46.4766 16.7178 46.4593 16.841 46.4712 16.963L46.4575 16.9679Z" fill="#162B75"/>
<path d="M50 17.9655V14.074H50.464V14.8425C50.5342 14.7216 50.6166 14.6092 50.71 14.5075C50.8037 14.4045 50.9098 14.3151 51.0255 14.2415C51.1505 14.1638 51.2847 14.1041 51.4246 14.0642C51.5851 14.0196 51.7506 13.998 51.9165 14.0001H52L51.9536 14.4927H51.8097C51.5237 14.4885 51.2434 14.578 51.007 14.7489C50.7663 14.9339 50.5745 15.1816 50.4501 15.4681V18L50 17.9655Z" fill="#162B75"/>
<path d="M53.0004 16.1805C52.9963 15.9092 53.0333 15.6389 53.1098 15.3798C53.1717 15.1705 53.2733 14.9768 53.4085 14.8104C53.5309 14.6634 53.6834 14.5478 53.8544 14.4724C54.0304 14.3951 54.2192 14.3558 54.4098 14.3567C54.5147 14.356 54.6194 14.3694 54.7211 14.3968C54.9185 14.4513 55.1032 14.5482 55.2638 14.6814C55.3417 14.7467 55.4148 14.818 55.4825 14.895V13H55.9032V17.0746C55.9011 17.2499 55.9082 17.4251 55.9243 17.5995C55.9334 17.717 55.9589 17.8324 56 17.942H55.5456C55.5244 17.8661 55.5075 17.7888 55.4952 17.7107C55.4785 17.6168 55.4701 17.5215 55.4699 17.426C55.4013 17.5047 55.3282 17.579 55.2512 17.6484C55.1732 17.7182 55.0886 17.7794 54.9987 17.8308C54.9055 17.8843 54.8067 17.9261 54.7043 17.9554C54.5903 17.9867 54.4728 18.0016 54.3551 17.9999C54.1717 18.001 53.99 17.9632 53.8208 17.8887C53.6582 17.8111 53.5143 17.6955 53.4001 17.5506C53.2666 17.3838 53.1664 17.1901 53.1056 16.9812C53.0311 16.7218 52.9956 16.4516 53.0004 16.1805ZM53.4211 16.1805C53.4175 16.3927 53.4444 16.6042 53.5011 16.8077C53.5455 16.969 53.6183 17.1199 53.7156 17.2526C53.8004 17.3662 53.9102 17.4563 54.0353 17.515C54.1601 17.5721 54.2948 17.6009 54.4308 17.5995C54.5288 17.6001 54.6265 17.5867 54.7211 17.5595C54.8134 17.5321 54.9024 17.4933 54.9861 17.4438C55.0727 17.3913 55.1544 17.3303 55.2301 17.2614C55.3133 17.1866 55.392 17.1064 55.4657 17.0212V15.3176C55.3234 15.1426 55.1559 14.9925 54.9693 14.8727C54.8049 14.7752 54.6193 14.7246 54.4308 14.7259C54.2864 14.7214 54.1429 14.7503 54.0101 14.8104C53.8845 14.8704 53.7747 14.962 53.6904 15.0773C53.5936 15.2098 53.5222 15.3609 53.48 15.5222C53.4347 15.7396 53.4192 15.9628 53.4337 16.185L53.4211 16.1805Z" fill="#162B75"/>
<path d="M57 17.3132L57.3213 17.023C57.4575 17.1852 57.6226 17.3213 57.8082 17.4244C58.0213 17.5291 58.257 17.5806 58.4947 17.5743C58.7565 17.5919 59.0177 17.5313 59.2445 17.4002C59.324 17.347 59.3887 17.2748 59.433 17.1904C59.4772 17.1059 59.4994 17.0118 59.4977 16.9166C59.5005 16.8214 59.4805 16.7269 59.4392 16.6409C59.3951 16.5606 59.3315 16.4924 59.2542 16.4426C59.1521 16.3763 59.0405 16.3257 58.9232 16.2927L58.4363 16.1524L57.8569 15.9734C57.7037 15.9188 57.5618 15.8368 57.4382 15.7316C57.3307 15.6534 57.2439 15.5505 57.185 15.4318C57.1254 15.2979 57.0971 15.1524 57.1022 15.0061C57.1021 14.8723 57.1321 14.7401 57.1899 14.6192C57.2494 14.4955 57.3359 14.3864 57.4431 14.3C57.5642 14.2023 57.703 14.1284 57.852 14.0824C58.0314 14.0255 58.2188 13.9978 58.4071 14.0001C58.5589 13.9992 58.7104 14.0122 58.8599 14.0388C58.9901 14.0624 59.1174 14.0997 59.2396 14.1501C59.3527 14.1965 59.4604 14.2549 59.561 14.3242C59.6574 14.3931 59.7485 14.4691 59.8336 14.5515L59.5464 14.8852C59.4054 14.7435 59.2406 14.6273 59.0595 14.5418C58.8621 14.4543 58.6476 14.4113 58.4314 14.4161C58.3015 14.4133 58.1719 14.4296 58.0468 14.4644C57.9534 14.4894 57.8658 14.5321 57.7887 14.5902C57.7276 14.6357 57.6781 14.6949 57.6443 14.763C57.6105 14.831 57.5932 14.9061 57.594 14.982C57.5927 15.0641 57.611 15.1453 57.6475 15.2189C57.6865 15.2916 57.7435 15.3532 57.8131 15.3979C57.9031 15.4562 58.0016 15.5002 58.1052 15.5285L58.5337 15.6591L59.1666 15.8525C59.3328 15.899 59.4894 15.9743 59.6291 16.075C59.7471 16.1606 59.8424 16.2735 59.9066 16.4039C59.9741 16.556 60.0057 16.7214 59.9991 16.8875C60.0048 17.0557 59.9662 17.2224 59.8872 17.3712C59.8114 17.508 59.7047 17.6256 59.5756 17.7146C59.4278 17.8145 59.2627 17.8867 59.0887 17.9274C58.893 17.977 58.6918 18.0013 58.4898 17.9999C58.3261 18.0002 58.1628 17.9824 58.003 17.9467C57.8586 17.9154 57.7182 17.8683 57.5843 17.8065C57.461 17.7493 57.345 17.6779 57.2386 17.5937C57.1478 17.5102 57.0677 17.416 57 17.3132Z" fill="#162B75"/>
<path d="M60 13.4966C60.0007 13.3979 60.0306 13.3015 60.0859 13.2198C60.1413 13.138 60.2196 13.0744 60.311 13.0371C60.4024 12.9998 60.5028 12.9904 60.5996 13.01C60.6964 13.0297 60.7852 13.0776 60.8547 13.1476C60.9243 13.2177 60.9716 13.3068 60.9906 13.4037C61.0097 13.5006 60.9996 13.6009 60.9616 13.6921C60.9237 13.7833 60.8596 13.8612 60.7774 13.916C60.6953 13.9708 60.5988 14 60.5 14C60.4341 14 60.3688 13.987 60.3079 13.9616C60.247 13.9363 60.1917 13.8991 60.1453 13.8524C60.0988 13.8056 60.062 13.7501 60.0371 13.689C60.0122 13.6279 59.9996 13.5626 60 13.4966ZM60.9291 13.4966C60.9284 13.4118 60.9026 13.329 60.8549 13.2588C60.8072 13.1887 60.7397 13.1342 60.6611 13.1023C60.5824 13.0705 60.4961 13.0627 60.413 13.0799C60.3299 13.0971 60.2538 13.1386 60.1943 13.199C60.1347 13.2595 60.0945 13.3363 60.0786 13.4196C60.0627 13.503 60.0718 13.5892 60.1049 13.6673C60.138 13.7455 60.1935 13.812 60.2645 13.8586C60.3354 13.9052 60.4185 13.9297 60.5034 13.9291C60.5597 13.9286 60.6154 13.9171 60.6673 13.8951C60.7192 13.8731 60.7663 13.8412 60.8058 13.801C60.8453 13.7608 60.8766 13.7133 60.8977 13.6611C60.9189 13.6088 60.9295 13.553 60.9291 13.4966ZM60.3108 13.2095H60.5068C60.6351 13.2095 60.7061 13.2669 60.7061 13.3682C60.7092 13.4042 60.6988 13.44 60.677 13.4688C60.6551 13.4975 60.6233 13.5171 60.5878 13.5236L60.7196 13.7669H60.6487L60.5237 13.5338H60.4189V13.7669H60.3108V13.2095ZM60.5034 13.4628C60.5777 13.4628 60.6216 13.4426 60.6216 13.375C60.6216 13.3074 60.5777 13.2872 60.5 13.2872H60.3953V13.4628H60.5034Z" fill="#162B75"/>
</g>
<defs>
<clipPath id="clip0_55_34448">
<rect width="75" height="24" fill="white"/>
</clipPath>
</defs>
</svg>
