<svg width="56" height="56" viewBox="0 0 56 56" fill="none" xmlns="http://www.w3.org/2000/svg">
<circle opacity="0.2" cx="28" cy="28" r="28" fill="#048EFF"/>
<path d="M36.0003 29.3335C34.747 29.3335 33.587 29.7735 32.667 30.5068C31.4403 31.4802 30.667 32.9868 30.667 34.6668C30.667 35.6668 30.947 36.6135 31.4403 37.4135C32.3603 38.9602 34.0537 40.0002 36.0003 40.0002C37.347 40.0002 38.5737 39.5068 39.507 38.6668C39.9203 38.3202 40.2803 37.8935 40.5603 37.4135C41.0537 36.6135 41.3337 35.6668 41.3337 34.6668C41.3337 31.7202 38.947 29.3335 36.0003 29.3335ZM38.7603 34.0935L35.9203 36.7201C35.7337 36.8935 35.4803 36.9868 35.2403 36.9868C34.987 36.9868 34.7337 36.8935 34.5337 36.6935L33.2137 35.3735C32.827 34.9869 32.827 34.3468 33.2137 33.9601C33.6003 33.5735 34.2403 33.5735 34.627 33.9601L35.267 34.6002L37.4003 32.6268C37.8003 32.2535 38.4403 32.2802 38.8136 32.6802C39.187 33.0802 39.1603 33.7068 38.7603 34.0935Z" fill="#048EFF"/>
<path opacity="0.4" d="M40.1199 40.6665C40.1199 41.0398 39.8265 41.3332 39.4532 41.3332H16.5465C16.1732 41.3332 15.8799 41.0398 15.8799 40.6665C15.8799 35.1465 21.3199 30.6665 27.9999 30.6665C29.3732 30.6665 30.7066 30.8531 31.9332 31.2131C31.1466 32.1465 30.6665 33.3598 30.6665 34.6665C30.6665 35.6665 30.9465 36.6132 31.4399 37.4132C31.7065 37.8665 32.0532 38.2798 32.4532 38.6265C33.3865 39.4798 34.6265 39.9998 35.9999 39.9998C37.4932 39.9998 38.8399 39.3865 39.7999 38.3998C40.0132 39.1198 40.1199 39.8798 40.1199 40.6665Z" fill="#048EFF"/>
<path d="M27.9997 27.9998C31.6816 27.9998 34.6663 25.0151 34.6663 21.3332C34.6663 17.6513 31.6816 14.6665 27.9997 14.6665C24.3178 14.6665 21.333 17.6513 21.333 21.3332C21.333 25.0151 24.3178 27.9998 27.9997 27.9998Z" fill="#048EFF"/>
</svg>
