<svg width="46" height="46" viewBox="0 0 46 46" fill="none" xmlns="http://www.w3.org/2000/svg">
<path d="M23.5 27.2357C24.049 27.2357 24.5094 27.0498 24.8814 26.678C25.2534 26.3062 25.4388 25.8467 25.4375 25.2994V21.4268H29.3125C29.8615 21.4268 30.3219 21.2409 30.6939 20.8691C31.0659 20.4973 31.2513 20.0378 31.25 19.4904C31.25 18.9418 31.064 18.4816 30.692 18.1099C30.32 17.7381 29.8602 17.5528 29.3125 17.5541H25.4375V13.6815C25.4375 13.1329 25.2515 12.6727 24.8795 12.3009C24.5075 11.9292 24.0477 11.7439 23.5 11.7452C22.951 11.7452 22.4906 11.9311 22.1186 12.3029C21.7466 12.6747 21.5612 13.1342 21.5625 13.6815V17.5541H17.6875C17.1385 17.5541 16.6781 17.74 16.3061 18.1118C15.9341 18.4836 15.7487 18.9431 15.75 19.4904C15.75 20.0391 15.936 20.4993 16.308 20.871C16.68 21.2428 17.1398 21.428 17.6875 21.4268H21.5625V25.2994C21.5625 25.848 21.7485 26.3082 22.1205 26.68C22.4925 27.0517 22.9523 27.237 23.5 27.2357ZM23.5 42C23.2417 42 22.9833 41.9516 22.725 41.8548C22.4667 41.758 22.2406 41.6289 22.0469 41.4675C17.3323 37.3045 13.8125 33.4396 11.4875 29.8729C9.1625 26.3062 8 22.9745 8 19.8777C8 15.0369 9.5584 11.1805 12.6752 8.30828C15.792 5.43609 19.4003 4 23.5 4C27.601 4 31.21 5.43609 34.3267 8.30828C37.4435 11.1805 39.0013 15.0369 39 19.8777C39 22.9758 37.8375 26.3082 35.5125 29.8749C33.1875 33.4415 29.6677 37.3058 24.9531 41.4675C24.7594 41.6289 24.5333 41.758 24.275 41.8548C24.0167 41.9516 23.7583 42 23.5 42Z" fill="#048EFF"/>
</svg>
