<svg width="57" height="56" viewBox="0 0 57 56" fill="none" xmlns="http://www.w3.org/2000/svg">
<circle opacity="0.2" cx="29" cy="28" r="28" fill="#048EFF"/>
<path opacity="0.4" fill-rule="evenodd" clip-rule="evenodd" d="M43.0294 32C43.5655 32 44 32.4345 44 32.9706C44 38.5149 39.5149 43 33.9706 43C33.6209 43 33.2983 42.8119 33.126 42.5076C32.9537 42.2033 32.9584 41.8299 33.1383 41.5301L34.4971 39.2653C34.7729 38.8057 35.3691 38.6566 35.8288 38.9324C36.2884 39.2082 36.4375 39.8044 36.1617 40.2641L35.8106 40.8493C39.3941 40.0179 42.0588 36.8097 42.0588 32.9706C42.0588 32.4345 42.4934 32 43.0294 32Z" fill="#048EFF"/>
<path opacity="0.4" fill-rule="evenodd" clip-rule="evenodd" d="M23.1894 16.1507C19.6059 16.9821 16.9412 20.1903 16.9412 24.0294C16.9412 24.5655 16.5066 25 15.9706 25C15.4345 25 15 24.5655 15 24.0294C15 18.4851 19.4851 14 25.0294 14C25.3791 14 25.7017 14.1881 25.874 14.4924C26.0463 14.7967 26.0416 15.1701 25.8617 15.4699L24.5029 17.7347C24.2271 18.1943 23.6309 18.3434 23.1712 18.0676C22.7116 17.7918 22.5625 17.1956 22.8383 16.7359L23.1894 16.1507Z" fill="#048EFF"/>
<path opacity="0.4" d="M29 33.1317V34H16V33.1317C16 30.6263 16.572 30 18.886 30H26.114C28.428 30 29 30.6263 29 33.1317Z" fill="#048EFF"/>
<path d="M16 34V36.109V38.9069C16 41.3814 16.572 42 18.886 42H26.114C28.428 42 29 41.3814 29 38.9069V36.109V34H16Z" fill="#048EFF"/>
<path opacity="0.4" d="M42 18.1317V19H29V18.1317C29 15.6263 29.572 15 31.886 15H39.114C41.428 15 42 15.6263 42 18.1317Z" fill="#048EFF"/>
<path d="M29 18V20.109V22.9069C29 25.3814 29.572 26 31.886 26H39.114C41.428 26 42 25.3814 42 22.9069V20.109V18H29Z" fill="#048EFF"/>
</svg>
