<svg width="39" height="37" viewBox="0 0 39 37" fill="none" xmlns="http://www.w3.org/2000/svg">
<rect width="36" height="36" rx="18" transform="matrix(0.712231 0.701945 -0.712231 0.701945 20.5 -7)" fill="#048EFF"/>
<path d="M17.8911 14.0257L14.5521 23H11.397L8.2157 14.0257H11.1779L12.7379 19.5558C12.9132 20.1809 13.0154 20.7126 13.0447 21.1508H13.0797C13.1206 20.736 13.2287 20.2218 13.404 19.6083L14.999 14.0257H17.8911ZM18.4871 22.7634V20.5198C18.9428 20.7944 19.3956 20.9989 19.8455 21.1333C20.3012 21.2677 20.7307 21.3348 21.1338 21.3348C21.6246 21.3348 22.0102 21.2677 22.2907 21.1333C22.5769 20.9989 22.7201 20.7944 22.7201 20.5198C22.7201 20.3445 22.6558 20.1984 22.5273 20.0816C22.3987 19.9647 22.2322 19.8625 22.0277 19.7749C21.8291 19.6872 21.61 19.6083 21.3704 19.5382C21.1309 19.4681 20.9001 19.3892 20.6781 19.3016C20.3217 19.1672 20.0062 19.0241 19.7316 18.8722C19.4628 18.7144 19.2349 18.5333 19.048 18.3288C18.8669 18.1243 18.7266 17.8877 18.6273 17.6189C18.5338 17.3502 18.4871 17.0317 18.4871 16.6636C18.4871 16.1612 18.5952 15.7288 18.8114 15.3666C19.0334 15.0043 19.3255 14.7093 19.6877 14.4814C20.0558 14.2477 20.4736 14.0783 20.941 13.9731C21.4143 13.8621 21.905 13.8066 22.4133 13.8066C22.8106 13.8066 23.2138 13.8387 23.6228 13.903C24.0318 13.9614 24.4349 14.0491 24.8322 14.1659V16.3043C24.4816 16.0998 24.1048 15.9479 23.7017 15.8486C23.3044 15.7434 22.9129 15.6908 22.5273 15.6908C22.3462 15.6908 22.1738 15.7084 22.0102 15.7434C21.8525 15.7726 21.7122 15.8194 21.5895 15.8836C21.4668 15.9421 21.3704 16.0209 21.3003 16.1203C21.2302 16.2138 21.1952 16.3218 21.1952 16.4445C21.1952 16.6081 21.2477 16.7484 21.3529 16.8652C21.4581 16.9821 21.5954 17.0843 21.7648 17.172C21.9342 17.2537 22.1212 17.3297 22.3257 17.3998C22.536 17.4641 22.7435 17.5313 22.948 17.6014C23.316 17.7299 23.6491 17.8701 23.947 18.0221C24.245 18.174 24.4992 18.3522 24.7095 18.5567C24.9257 18.7612 25.0893 19.0007 25.2003 19.2753C25.3171 19.5499 25.3756 19.8771 25.3756 20.2569C25.3756 20.7886 25.2587 21.2443 25.025 21.6241C24.7972 21.998 24.4904 22.3047 24.1048 22.5443C23.725 22.778 23.2839 22.9474 22.7814 23.0526C22.2848 23.1636 21.7677 23.2191 21.2302 23.2191C20.2428 23.2191 19.3284 23.0672 18.4871 22.7634ZM28.2151 23.2191C27.7594 23.2191 27.3796 23.0789 27.0758 22.7984C26.772 22.518 26.6201 22.1733 26.6201 21.7643C26.6201 21.3436 26.7749 20.9989 27.0845 20.7301C27.4001 20.4614 27.7915 20.327 28.2589 20.327C28.7322 20.327 29.1178 20.4643 29.4158 20.7389C29.7196 21.0077 29.8715 21.3495 29.8715 21.7643C29.8715 22.1908 29.7167 22.5414 29.407 22.816C29.1032 23.0847 28.7059 23.2191 28.2151 23.2191Z" fill="white"/>
</svg>
